<svg xmlns="http://www.w3.org/2000/svg" xml:space="preserve" style="fill-rule:evenodd;clip-rule:evenodd;stroke-linejoin:round;stroke-miterlimit:2" viewBox="0 0 1300 305"><g transform="translate(28.413 2.37) scale(1.35987)"><clipPath id="a"><path d="M0 0h220v220.801H0z"/></clipPath><g clip-path="url(#a)"><path d="M219.474 5.58a3.55 3.55 0 0 0-1.083-1.181c.07-.28.105-.567.105-.856a3.559 3.559 0 0 0-3.542-3.542c-.993 0-1.942.418-2.613 1.151l-1.968 2.066-3.69 1.673a6.547 6.547 0 0 0-3.836 0c-.514.15-1.061.15-1.575 0a9.25 9.25 0 0 0-5.214 0 8.605 8.605 0 0 0-3.247.59 8.072 8.072 0 0 0-3.787 3.099l-.345.443c-3.599.658-6.674 3-8.264 6.296a9.83 9.83 0 0 0-.64 2.066 17.826 17.826 0 0 0-3.099-1.77 18.666 18.666 0 0 0-18.988 2.803 19.166 19.166 0 0 0-6.346 19.677 34.143 34.143 0 0 0 3.936 9.839 111.985 111.985 0 0 0 15.987 19.677 94.686 94.686 0 0 1 12.889 15.544l.491.886c3.64 6.936 2.952 12.052-2.016 15.151a12.496 12.496 0 0 1-5.264 1.82 22.934 22.934 0 0 0-1.328-19.037 21.55 21.55 0 0 0-2.755-3.739c-7.28-7.969-15.004-6.198-18.053-4.132a3.551 3.551 0 0 0-1.378 4.181l.246.541a3.547 3.547 0 0 0 3.493 1.722 9.851 9.851 0 0 1 8.854 5.362 11.182 11.182 0 0 1 0 11.462 44.288 44.288 0 0 1-4.919-4.92l-.64-.639-.344-.393a30.998 30.998 0 0 0-17.66-11.118 28.43 28.43 0 0 0-3.738-13.38 40.187 40.187 0 0 0-12.495-13.626 24.783 24.783 0 0 0-2.46-1.476c-.988-11.817-9.282-21.825-20.71-24.99-10.382-2.793-21.454 1.456-27.301 10.478-.492.787-1.033 1.574-1.525 2.46a112.818 112.818 0 0 0-9.544 25.58 107.11 107.11 0 0 1-7.133 20.12l-.54.983c-1.968 3.444-3.74 5.362-5.609 5.953a3.742 3.742 0 0 1-3.443-.59c-1.87-1.28-1.427-3.887 0-8.954.49-1.348.884-2.729 1.18-4.132a10.974 10.974 0 0 0-1.869-8.707 9.843 9.843 0 0 0-7.23-3.788 10.844 10.844 0 0 0-10.38 6.641l-.738 1.378a8.907 8.907 0 0 0-2.903-4.23 8.598 8.598 0 0 0-2.705-1.182 9.348 9.348 0 0 0-4.92-1.82 3.147 3.147 0 0 1-1.574-.492 6.546 6.546 0 0 0-3.984-.885l-3.001-2.361-1.328-2.558a3.546 3.546 0 0 0-3.153-1.928 3.557 3.557 0 0 0-3.537 3.354 3.548 3.548 0 0 0-2.24 3.294 3.551 3.551 0 0 0 2.535 3.396l2.804.69 3.148 2.459a6.549 6.549 0 0 0 1.771 3.394c.389.374.663.852.787 1.377a9.248 9.248 0 0 0 2.902 4.33 8.626 8.626 0 0 0 2.116 2.557 8.07 8.07 0 0 0 4.575 1.722h.54a11.473 11.473 0 0 0 9.84 4.034 9.884 9.884 0 0 0 2.114-.492 17.88 17.88 0 0 0 0 3.493 18.668 18.668 0 0 0 11.954 15.052 19.164 19.164 0 0 0 20.317-4.427 34.136 34.136 0 0 0 6.395-8.215A111.984 111.984 0 0 0 80.8 71.152a94.663 94.663 0 0 1 6.985-18.939l.541-.885c4.181-6.64 8.953-8.609 14.118-5.854a12.5 12.5 0 0 1 4.23 3.64 22.936 22.936 0 0 0-15.79 10.675 21.583 21.583 0 0 0-1.87 4.23c-3.246 10.282 2.116 16.086 5.461 17.71a3.552 3.552 0 0 0 4.28-.935l.344-.492a3.546 3.546 0 0 0 0-3.886 9.85 9.85 0 0 1 0-10.38 11.18 11.18 0 0 1 9.839-5.657 44.185 44.185 0 0 1-1.624 6.641l-.246.886v.492a31 31 0 0 0-.836 20.857 28.435 28.435 0 0 0-9.838 9.839 40.187 40.187 0 0 0-5.56 17.61 24.703 24.703 0 0 0 0 2.854c-9.758 6.76-14.29 18.959-11.313 30.45 2.775 10.386 11.991 17.847 22.727 18.398h2.853a112.785 112.785 0 0 0 26.908-4.526 107.1 107.1 0 0 1 21.005-3.886h1.082a11.907 11.907 0 0 1 7.97 1.869 3.74 3.74 0 0 1 1.23 3.296c0 2.263-2.657 3.197-7.872 4.28a30.65 30.65 0 0 0-4.132 1.082 10.975 10.975 0 0 0-6.64 5.952 9.843 9.843 0 0 0 .344 8.166c2.098 4 6.49 6.285 10.97 5.706h1.524a8.903 8.903 0 0 0-2.164 4.624 8.597 8.597 0 0 0 0 3.345 9.356 9.356 0 0 0 .836 4.92 3.15 3.15 0 0 1 .394 1.623 6.546 6.546 0 0 0 1.23 3.886l-.542 3.788-1.525 2.41a3.547 3.547 0 0 0-.432 1.695 3.559 3.559 0 0 0 3.542 3.542c.505 0 1.005-.108 1.465-.317a3.54 3.54 0 0 0 2.404.941 3.559 3.559 0 0 0 3.542-3.542 3.53 3.53 0 0 0-.141-.99l-.787-2.755.59-3.985a6.545 6.545 0 0 0 2.017-3.246 2.802 2.802 0 0 1 .787-1.378 9.252 9.252 0 0 0 2.312-4.673 8.606 8.606 0 0 0 1.132-3.1 8.07 8.07 0 0 0-.787-4.918v-.492a11.473 11.473 0 0 0-1.329-10.33 9.823 9.823 0 0 0-1.475-1.575 17.748 17.748 0 0 0 3.05-1.672 18.666 18.666 0 0 0 7.083-17.857 19.166 19.166 0 0 0-13.97-15.397 34.14 34.14 0 0 0-10.33-1.427 111.984 111.984 0 0 0-24.99 4.034 94.626 94.626 0 0 1-19.677 3.394h-1.033c-7.822-.295-11.905-3.443-12.102-9.297a12.49 12.49 0 0 1 1.033-5.46 22.935 22.935 0 0 0 17.12 8.362 21.58 21.58 0 0 0 4.623-.492c10.528-2.312 12.889-9.838 12.643-13.577a3.552 3.552 0 0 0-2.952-3.247h-.59a3.549 3.549 0 0 0-3.247 2.165 9.85 9.85 0 0 1-9.051 4.92 11.179 11.179 0 0 1-9.839-5.806 44.278 44.278 0 0 1 6.592-1.918h1.428a31 31 0 0 0 18.497-9.839 28.438 28.438 0 0 0 13.43 3.444 40.188 40.188 0 0 0 18.053-3.985c.862-.41 1.7-.87 2.509-1.377 10.729 5.073 23.557 2.906 32.024-5.411 7.607-7.594 9.462-19.303 4.575-28.876-.443-.836-.886-1.673-1.377-2.509a112.796 112.796 0 0 0-17.365-21.054 107.095 107.095 0 0 1-13.873-16.234l-.59-.934a11.908 11.908 0 0 1-2.361-7.822 3.74 3.74 0 0 1 1.476-2.46c2.066-.983 4.083.739 7.625 4.674a30.74 30.74 0 0 0 3 3.05 10.976 10.976 0 0 0 8.461 2.755 9.84 9.84 0 0 0 6.887-4.379 10.843 10.843 0 0 0-.54-12.347l-.788-1.328a8.904 8.904 0 0 0 4.92-.443c1.097-.4 2.1-1.02 2.95-1.82a9.345 9.345 0 0 0 4.035-3.296 3.15 3.15 0 0 1 1.23-1.131 6.539 6.539 0 0 0 2.754-3l3.542-1.427h2.853a3.559 3.559 0 0 0 3.724-3.537 3.54 3.54 0 0 0-.477-1.776l-.05.099Zm-96.91 63.703a24.596 24.596 0 0 1 3.346 7.87c.696 2.276.696 4.71 0 6.986-.787 1.722-3.05 1.722-3.886-2.115a49.57 49.57 0 0 1 .54-12.74v-.001Zm-4.918 37.485a49.58 49.58 0 0 1-11.364 5.804 24.6 24.6 0 0 1 4.92-6.837 11.958 11.958 0 0 1 6.444-3.444c1.967-.197 3.099 1.82 0 4.477Zm25.58-3.001a11.953 11.953 0 0 1-5.903-3.64c-1.083-1.525 0-3.493 3.787-2.312a49.553 49.553 0 0 1 10.97 6.936 24.603 24.603 0 0 1-8.608-1.033l-.246.049Z" style="fill:#44d62c;fill-rule:nonzero"/><path d="m216.424 7.35-3.198-.787 1.722-2.902-2.509 2.607-6.247 2.41a2.366 2.366 0 0 0-2.608-.64c-3.246.837-3.345-.934-6.985.444-.738.295-.492-.345-2.853.442-2.361.787-2.509 3.198-3.837 3.444-3.936.29-7.019 3.609-7.019 7.556 0 1.949.752 3.825 2.099 5.234.837 1.18 1.329 2.017.886 2.46-.442.442-1.033.639-1.967-.788a25.142 25.142 0 0 0-8.707-8.018 15.39 15.39 0 0 0-5.619-1.062c-8.447 0-15.397 6.951-15.397 15.397 0 1.441.202 2.875.601 4.26 3.69 16.577 25.875 31.286 33.008 44.863 5.263 9.838 2.115 16.43-3.247 19.677a16.435 16.435 0 0 1-12.544 2.017c4.839-7.246 4.316-16.883-1.279-23.563-7.133-7.822-13.479-3.591-13.479-3.591 10.183-1.23 20.563 13.823 9.839 25.137a40.675 40.675 0 0 1-8.904-7.773c-1.574-1.672-9.838-11.658-19.234-10.478 1.77-9.838-4.92-21.201-14.413-27.547a21.358 21.358 0 0 0-3.788-2.066C118.679 28.06 90.344 21.96 79.03 39.325c-9.2 14.02-10.872 34.435-18.005 47.864-3.394 6.395-8.756 11.708-14.757 7.625-6.002-4.083-.837-12.249 0-16.578a6.556 6.556 0 0 0 .261-1.831c0-3.447-2.723-6.333-6.164-6.532-4.92-.393-7.182 4.92-7.97 6.69a2.959 2.959 0 0 1-2.841 2.15c-.965 0-1.87-.473-2.422-1.264-.836-.935-1.18-3.394-2.558-4.378-1.377-.984-1.968-.738-2.607-1.23-3.1-2.312-3.64-.738-6.592-2.41a2.414 2.414 0 0 0-2.853 0l-4.92-4.034L5.93 62.15l.935 3.198H3.372l3.542.885 4.92 4.034a2.365 2.365 0 0 0 .737 2.607c2.361 2.41.886 3.345 3.837 5.854.59.492 0 .59 1.771 2.214 1.77 1.623 4.034.59 4.92 1.574a7.582 7.582 0 0 0 6.306 3.378 7.594 7.594 0 0 0 7.27-5.444c.59-1.328 1.082-2.115 1.722-1.968.64.148 1.082.59.344 2.115a25.136 25.136 0 0 0-2.558 11.56c1.138 7.491 7.645 13.085 15.222 13.085 4.185 0 8.195-1.706 11.096-4.722C75.045 89.01 76.67 62.495 84.834 49.508c6.051-9.543 13.184-9.839 18.792-7.084a16.433 16.433 0 0 1 8.018 9.839c-8.662-.527-16.698 4.736-19.677 12.887-3.197 10.084 3.64 13.479 3.64 13.479-6.198-8.215 1.673-24.596 16.775-21.202a40.67 40.67 0 0 1-2.115 11.412c-.64 2.165-4.92 14.414.54 21.94-9.592 3.493-15.839 15.004-16.675 26.22a21.404 21.404 0 0 0 0 4.28c-21.497 14.757-12.593 42.403 7.92 43.584 16.725.984 35.172-7.773 50.422-8.314 7.231-.246 14.462 1.722 13.921 8.953-.54 7.231-10.183 6.887-14.315 8.363a6.56 6.56 0 0 0-4.98 6.353c0 1.023.24 2.031.7 2.944 2.017 4.28 8.019 3.64 9.839 3.591 3.886 0 3.788 2.853 3.394 4.132-.393 1.28-2.361 2.706-2.509 4.428 0 2.46.345 2.066 0 2.853-.492 3.837 1.181 3.542 1.181 6.887a2.415 2.415 0 0 0 1.476 2.46l-.935 6.444-1.968 3.05 2.312-2.362 1.673 2.952-1.033-3.493.935-6.493a2.365 2.365 0 0 0 1.869-1.919c.935-3.246 2.46-2.46 3.1-6.247 0-.787.54-.246 1.032-2.657.344-1.672-1.476-3.787-1.082-4.919 2.558-8.117-3.198-11.216-8.56-10.724-1.475 0-2.41 0-2.558-.492-.147-.492 0-1.23 1.673-1.328 4-.262 7.879-1.476 11.314-3.542a15.407 15.407 0 0 0 5.771-12.017c0-7.046-4.837-13.236-11.674-14.94-16.233-4.92-40.042 6.74-55.341 6.149-11.314-.443-15.299-6.395-15.545-12.74a16.438 16.438 0 0 1 4.526-11.856c3.856 7.817 12.469 12.184 21.054 10.675 10.33-2.263 9.838-9.839 9.838-9.839-4.033 9.445-22.284 10.92-26.76-3.935a40.69 40.69 0 0 1 11.167-3.837c2.213-.541 15.052-2.755 18.693-11.413 8.116 6.395 21.398 6.002 31.237 1.082a21.416 21.416 0 0 0 3.64-2.213c23.612 11.216 42.994-10.281 33.795-28.68-7.526-14.757-24.301-26.563-32.418-39.353-3.837-6.15-5.755-13.43.787-16.529 6.543-3.099 11.118 5.264 14.512 8.068a6.543 6.543 0 0 0 10.183-.935c2.705-3.984-.984-8.904-1.771-10.232a2.953 2.953 0 0 1-.766-1.984 2.963 2.963 0 0 1 2.636-2.935c1.18-.246 3.541.689 4.918 0 1.378-.689 1.624-1.328 2.362-1.623 3.542-1.525 2.46-2.804 5.362-4.477a2.415 2.415 0 0 0 1.574-2.41l6.05-2.41 3.641-.049Zm-96.171 54.112a28.585 28.585 0 0 1 9.051 15.052 14.169 14.169 0 0 1-.984 9.839c-2.262 3.935-8.411 4.378-9.838-3.64-1.476-6.297 1.131-16.578 1.722-21.448l.049.197Zm0 48.257c-4.92 4.182-14.758 7.084-19.677 8.953a28.582 28.582 0 0 1 8.609-15.397 14.172 14.172 0 0 1 9.051-4.132c4.329-.148 7.97 4.968 1.87 10.38l.147.196Zm21.989-2.607a14.17 14.17 0 0 1-8.117-5.805c-2.263-3.935.394-9.445 8.166-6.887 6.001 2.017 13.626 9.396 17.512 12.348a28.585 28.585 0 0 1-17.561.344Z" style="fill-rule:nonzero"/></g></g><path d="M132.94.499v3.469h20.068l2.003-3.469H132.94Zm0 14.029v3.469h20.068l2.003-3.469H132.94Zm0 14.029v3.473h20.068l2.003-3.473H132.94Zm66.214-18.289V8.269c0-4.26-3.503-7.766-7.763-7.77h-14.312v31.538h3.473V18.039h6.5l8.096 13.998h4.002l-8.099-13.998h.336c4.263 0 7.771-3.508 7.771-7.771h-.004Zm-18.606-6.3h10.839c2.357.006 4.293 1.945 4.297 4.301v2.003c-.006 2.355-1.942 4.291-4.297 4.297h-10.843l.004-10.601Zm-157.964 6.3V8.269c0-4.262-3.508-7.77-7.771-7.77H.505v31.538h3.469V18.039h6.531l8.099 13.998h4.002l-8.103-13.998h.333c4.254-.013 7.748-3.516 7.748-7.771Zm-18.61-6.3h10.839c2.358.004 4.297 1.943 4.301 4.301v2.003c-.006 2.357-1.944 4.293-4.301 4.297H3.974V3.968Zm51.66 5.79 8.998 22.272h3.742L57.505 5.129 55.634.499l-1.871 4.63L42.894 32.03h3.741l8.999-22.272ZM201.924.499h2.211v.446h-.85v2.619h-.499V.941h-.862V.499Zm3.061.011h.851l.657 2.389.68-2.389h.862v3.05h-.491V1.051h-.049l-.718 2.388h-.511l-.771-2.388V3.56h-.491l-.019-3.05ZM88.79.499v3.469h16.213L90.8 28.557l-2.01 3.473h20.2l2.003-3.473H94.799l14.203-24.589 1.999-3.469H88.79Z" style="fill:#0f0;fill-rule:nonzero" transform="matrix(4.1239 0 0 4.1239 411.584 85.403)"/><path d="M132.94.499v3.469h20.068l2.003-3.469H132.94Zm0 14.029v3.469h20.068l2.003-3.469H132.94Zm0 14.029v3.473h20.068l2.003-3.473H132.94ZM55.634 9.758l8.998 22.272h3.742L57.505 5.129 55.634.499l-1.871 4.63L42.894 32.03h3.741l8.999-22.272Z" style="fill:#0f0;fill-rule:nonzero" transform="matrix(4.1239 0 0 4.1239 411.584 85.403)"/></svg>